<?xml version="1.0" encoding="utf-8"?>
<!-- Generator: Adobe Illustrator 19.0.0, SVG Export Plug-In . SVG Version: 6.00 Build 0)  -->
<svg version="1.1" id="Layer_1" xmlns="http://www.w3.org/2000/svg" xmlns:xlink="http://www.w3.org/1999/xlink" x="0px" y="0px"
	 viewBox="0 0 412.2 412.2" style="enable-background:new 0 0 412.2 412.2;" xml:space="preserve">
<style type="text/css">
	.st0{fill:#757575;}
	.st1{fill:#FFFFFF;}
</style>
<g>
	<circle id="XMLID_115_" class="st0" cx="206.1" cy="206.1" r="206.1"/>
	<path class="st1" d="M290.7,82.7H121.5c-21.4,0-38.8,17.4-38.8,38.8v169.2c0,21.4,17.4,38.8,38.8,38.8h169.2
		c21.4,0,38.8-17.4,38.8-38.8V121.5C329.5,100.1,312.1,82.7,290.7,82.7z M264.5,111.2l31-0.1h0.1c3,0,5.4,2.4,5.4,5.3v31.1
		c0,3-2.4,5.4-5.4,5.4l-31,0.1c-3,0-5.4-2.4-5.4-5.3l-0.1-31.1C259.1,113.7,261.5,111.3,264.5,111.2z M168.3,184.9
		c0.8-1.4,1.7-2.8,2.6-4.1c7.9-10.9,20.7-18.1,35.2-18.1c14.5,0,27.3,7.2,35.2,18.1c1,1.3,1.8,2.7,2.6,4.2
		c3.5,6.2,5.6,13.5,5.6,21.2c0,24-19.5,43.4-43.5,43.4s-43.4-19.5-43.4-43.4C162.7,198.4,164.7,191.2,168.3,184.9z M305.5,281.8
		c0,13-10.6,23.7-23.7,23.7H130.4c-13,0-23.7-10.6-23.7-23.7v-101h36.8c-0.9,2.2-1.7,4.6-2.4,6.9c-1.7,5.8-2.6,12-2.6,18.4
		c0,37.2,30.3,67.5,67.5,67.5c37.2,0,67.5-30.3,67.5-67.5c0-6.4-0.9-12.5-2.6-18.4c-0.7-2.4-1.5-4.7-2.4-6.9h36.8V281.8z"/>
</g>
</svg>
