<?xml version="1.0" encoding="utf-8"?>
<!-- Generator: Adobe Illustrator 19.0.0, SVG Export Plug-In . SVG Version: 6.00 Build 0)  -->
<svg version="1.1" id="Capa_1" xmlns="http://www.w3.org/2000/svg" xmlns:xlink="http://www.w3.org/1999/xlink" x="0px" y="0px"
	 viewBox="0 0 207.1 122.1" style="enable-background:new 0 0 207.1 122.1;" xml:space="preserve">
<style type="text/css">
	.st0{fill:#515151;}
	.st1{fill:#757575;}
	.st2{fill:#3F3F3F;}
	.st3{fill:#212121;}
</style>
<g id="XMLID_15_">
	<path id="XMLID_16_" d="M23.8,94.8c0.7,1.7,1.5,2.3,2.1,2.3v0.7c-1.7-0.1-4.2-0.1-6.6-0.1c-2.4,0-4.8,0-6,0.1v-0.7
		c1.7-0.1,2.5-0.3,2.5-1.3c0-0.4-0.2-1-0.4-1.7l-2.1-5.9H6l-0.6,1.6c-0.8,2.1-1.2,3.6-1.2,4.7c0,2.1,1.3,2.5,3.3,2.6v0.7
		c-1.8-0.1-3.1-0.1-4.7-0.1c-0.9,0-2.1,0-2.8,0.1v-0.7c1.1-0.2,2.2-1.2,3.3-4.2l8-20.5c0.6,0.1,1.2,0.1,1.9,0.1s1.3,0,1.9-0.1
		L23.8,94.8z M9.8,78.4l-3.5,9H13L9.8,78.4z"/>
	<path id="XMLID_19_" d="M56.2,94.5c0,2,0.5,2.6,2,2.6v0.8c-1,0-3.2-0.1-5-0.1c-1.9,0-3.8,0.1-4.8,0.1V97c1,0,1.3-0.6,1.3-2.6V82.8
		c0-1.5-0.5-2.3-1.8-2.3s-2.5,1.2-2.7,2.7c0,0.5,0.1,1,0.1,1.6v9.8c0,2,0.4,2.6,1.7,2.6v0.8c-0.9,0-3-0.1-4.7-0.1
		c-1.9,0-3.8,0.1-4.7,0.1V97c0.9,0,1.3-0.6,1.3-2.6V82.8c0-1.5-0.4-2.3-1.4-2.3c-1.3,0-2.6,1.1-2.6,2.6v11.4c0,2,0.3,2.6,1.3,2.6
		v0.8c-0.8,0-2.7-0.1-4.4-0.1c-2,0-4.4,0.1-5.4,0.1V97c1.5,0,2-0.6,2-2.6V83c0-2.2-0.5-3.2-2-3.2v-0.8c0.8,0.1,1.5,0.1,2.2,0.1
		c2.4,0,4.5-0.1,6.3-0.5v2.6c1.1-1.9,3-2.7,5.4-2.7c2.2,0,3.4,0.6,4.1,1.4c0.4,0.4,0.6,1,0.8,1.7c1.3-2.4,3.4-3.1,6-3.1
		c2.2,0,3.4,0.6,4.1,1.4c0.7,0.9,1.1,2.2,1.1,4.7V94.5z"/>
	<path id="XMLID_21_" d="M79.1,87.6c0,8.2-3.9,10.7-8.4,10.7c-1.4,0-2.5-0.1-3.5-0.5c-0.8-0.3-1.7-0.5-2.6-0.5c-1.5,0-2.8,0.4-3.5,1
		L60.7,98c0.2-0.7,0.2-1.3,0.2-2V74c0-2.2-0.5-3.2-2-3.2V70c0.8,0.1,1.5,0.1,2.2,0.1c2.4,0,4.5-0.1,6.3-0.5v11.7
		c1.1-1.8,3-2.7,5.5-2.7C76.4,78.6,79.1,81.5,79.1,87.6z M72.4,88.5c0-6.4-1.1-8-2.4-8s-2.6,1.1-2.6,2.6v14.1
		c0.5,0.3,1.2,0.4,1.7,0.4C71.3,97.6,72.4,94.6,72.4,88.5z"/>
	<path id="XMLID_24_" d="M95.9,80.4c1,1,1.2,2.5,1.2,5v9.6c0,1.2,0.2,1.5,0.5,1.5c0.4,0,0.8-0.3,1.1-0.5l0.4,0.6
		c-1.1,1-2.6,1.3-4.7,1.3c-2.7,0-3.7-1.3-3.7-2.7c-1,1.7-2.9,2.7-5.2,2.7c-2.9,0-4.5-1.7-4.5-4.1c0-2.4,1.4-4,4.6-5.1
		c2.8-1,5-1.7,5-3.3v-3.2c0-1.1-0.4-3-2.7-3c-0.6,0-1.4,0.3-1.9,0.6c1.5,0.6,2.4,1.6,2.4,3.3c0,1.7-1.4,3-3.5,3c-1.8,0-3-1.4-3-3.1
		c0-1.5,0.9-2.6,2.2-3.3c1.5-0.8,3.3-1.2,5.8-1.2S94.6,79,95.9,80.4z M90.7,87c-0.3,0.5-0.9,1.1-1.4,1.6c-1.1,1-1.8,2.3-1.8,4.1
		c0,1.9,0.8,2.5,1.8,2.5c0.5,0,0.9-0.1,1.3-0.6V87z"/>
	<path id="XMLID_27_" d="M111.5,79.7c0.2,0.1,0.5,0.2,0.7,0.2c0.5,0,0.8-0.4,0.9-1.2h0.7c-0.1,1.4-0.1,3.2-0.1,6.5h-0.7
		c-0.3-2.7-1.5-5.6-4.4-5.6c-1.2,0-2.1,0.8-2.1,2c0,2.2,2.3,3.5,4.3,5.2c2.2,1.8,3.9,3.3,3.9,6.1c0,3.3-3.3,5.6-7.3,5.6
		c-1.7,0-3-0.4-3.7-0.9c-0.8-0.4-1.3-0.6-1.8-0.6c-0.5,0-0.8,0.6-1,1.2H100c0.1-1.5,0.1-3.6,0.1-7.2h0.7c0.4,3.8,2.1,6.5,4.7,6.5
		c1.1,0,2.1-0.6,2.1-2c0-2.1-1.4-3.3-3.3-5c-2.2-2-4.2-3.7-4.2-6.6c0-3.2,3.2-5.2,6.8-5.2C109,78.7,110.8,79.3,111.5,79.7z"/>
	<path id="XMLID_29_" d="M127,79.7c0.2,0.1,0.5,0.2,0.7,0.2c0.5,0,0.8-0.4,0.9-1.2h0.7c-0.1,1.4-0.1,3.2-0.1,6.5h-0.7
		c-0.3-2.7-1.5-5.6-4.4-5.6c-1.2,0-2.1,0.8-2.1,2c0,2.2,2.3,3.5,4.3,5.2c2.2,1.8,3.9,3.3,3.9,6.1c0,3.3-3.3,5.6-7.3,5.6
		c-1.7,0-3-0.4-3.7-0.9c-0.8-0.4-1.3-0.6-1.8-0.6c-0.5,0-0.8,0.6-1,1.2h-0.7c0.1-1.5,0.1-3.6,0.1-7.2h0.7c0.4,3.8,2.1,6.5,4.7,6.5
		c1.1,0,2.1-0.6,2.1-2c0-2.1-1.4-3.3-3.3-5c-2.2-2-4.2-3.7-4.2-6.6c0-3.2,3.2-5.2,6.8-5.2C124.6,78.7,126.3,79.3,127,79.7z"/>
	<path id="XMLID_31_" d="M146.8,80.4c1,1,1.2,2.5,1.2,5v9.6c0,1.2,0.2,1.5,0.5,1.5c0.4,0,0.8-0.3,1.1-0.5l0.4,0.6
		c-1.1,1-2.6,1.3-4.7,1.3c-2.7,0-3.7-1.3-3.7-2.7c-1,1.7-2.9,2.7-5.2,2.7c-2.9,0-4.5-1.7-4.5-4.1c0-2.4,1.4-4,4.6-5.1
		c2.8-1,5-1.7,5-3.3v-3.2c0-1.1-0.4-3-2.7-3c-0.6,0-1.4,0.3-1.9,0.6c1.5,0.6,2.4,1.6,2.4,3.3c0,1.7-1.4,3-3.5,3c-1.8,0-3-1.4-3-3.1
		c0-1.5,0.9-2.6,2.2-3.3c1.5-0.8,3.3-1.2,5.8-1.2S145.4,79,146.8,80.4z M141.5,87c-0.3,0.5-0.9,1.1-1.4,1.6c-1.1,1-1.8,2.3-1.8,4.1
		c0,1.9,0.8,2.5,1.8,2.5c0.5,0,0.9-0.1,1.3-0.6V87z"/>
	<path id="XMLID_34_" d="M169,93.9c0,2.2,0.5,3.2,2,3.2v0.8c-0.8-0.1-1.5-0.1-2.2-0.1c-2.4,0-4.4,0.1-6.3,0.5v-2.5
		c-1,1.8-2.3,2.7-4.4,2.7c-4.1,0-7.3-2.9-7.3-10c0-6.5,3.2-9.7,8-9.7c1.6,0,2.8,0.3,3.7,0.9V74c0-2.2-0.5-3.2-2-3.2v-0.8
		c0.8,0.1,1.5,0.1,2.2,0.1c2.4,0,4.5-0.1,6.3-0.5V93.9z M162.5,93.9V80.4c-0.5-0.3-1.2-0.5-1.7-0.5c-2.2,0-3.3,2.8-3.3,8.6
		c0,6.4,1.1,8,2.4,8C161.2,96.5,162.5,95.4,162.5,93.9z"/>
	<path id="XMLID_37_" d="M190.2,88.5c0,7.3-3.7,9.8-9.2,9.8c-5.6,0-9.3-2.6-9.3-9.8c0-7.3,3.7-9.9,9.3-9.9
		C186.5,78.6,190.2,81.2,190.2,88.5z M178.4,88.5c0,6.4,1.1,9.1,2.5,9.1s2.5-2.7,2.5-9.1c0-6.5-1.1-9.2-2.5-9.2S178.4,82,178.4,88.5
		z"/>
	<path id="XMLID_40_" d="M207.1,82.3c0,2.2-1.3,3.5-3.3,3.5c-2.1,0-3.2-1-3.2-2.6c0-1.6,0.8-2.6,1.8-3.4c-0.4,0-0.8,0.1-1.2,0.2
		c-1.2,0.5-2.1,1.8-2.1,3.2v10.8c0,2.3,0.9,3,3.1,3v0.8c-1.1,0-3.5-0.1-5.8-0.1c-2.2,0-4.7,0.1-5.8,0.1v-0.8c1.5,0,2-0.6,2-2.6V83.1
		c0-2.2-0.5-3.2-2-3.2v-0.8c0.8,0.1,1.5,0.1,2.2,0.1c2.4,0,4.5-0.1,6.3-0.5v2.6c0.9-1.8,2.6-2.7,4.7-2.7
		C206.4,78.7,207.1,80.7,207.1,82.3z"/>
	<path id="XMLID_42_" d="M61.6,109.1l-0.1,0.4c-1.2,0.1-1.5,0.2-1.9,1.5l-2.4,8.9c-0.1,0.4-0.2,0.7-0.2,0.9c0,0.5,0.3,0.6,1.2,0.7
		l-0.1,0.4c-0.5,0-1.4-0.1-2.3-0.1c-0.8,0-1.7,0-2.3,0.1l0.1-0.4c1.2-0.1,1.5-0.2,1.9-1.5l1.2-4.3H51l-1.2,4.3
		c-0.1,0.4-0.1,0.7-0.1,0.9c0,0.5,0.3,0.6,1.2,0.7l-0.1,0.4c-0.6,0-1.5-0.1-2.3-0.1c-0.9,0-1.8,0-2.3,0.1l0.1-0.4
		c1.2-0.1,1.5-0.2,1.8-1.5l2.4-8.9c0.1-0.4,0.1-0.7,0.1-0.9c0-0.5-0.4-0.7-1.2-0.7l0.1-0.4c0.5,0,1.4,0.1,2.3,0.1
		c0.8,0,1.7,0,2.3-0.1l-0.1,0.4c-1.2,0.1-1.5,0.2-1.9,1.5l-1.1,4.2h5.8L58,111c0.1-0.4,0.2-0.7,0.2-0.9c0-0.5-0.4-0.7-1.2-0.7
		l0.1-0.4c0.5,0,1.4,0.1,2.3,0.1C60.2,109.1,61.1,109.1,61.6,109.1z"/>
	<path id="XMLID_44_" d="M65.6,112.3c1.5,0,2.5,0.9,2.5,2.8c0,2.6-1.8,6.9-5.2,6.9c-1.5,0-2.5-0.9-2.5-2.8
		C60.4,116.6,62.2,112.3,65.6,112.3z M61.9,120.1c0,1.1,0.3,1.6,1,1.6c1.9,0,3.5-4.3,3.5-7.5c0-1.1-0.3-1.6-1-1.6
		C63.5,112.7,61.9,116.9,61.9,120.1z"/>
	<path id="XMLID_47_" d="M70.9,120.3c0,0.1-0.1,0.3-0.1,0.4c0,0.5,0.3,0.7,0.8,0.7c0.5,0,1.1-0.3,1.6-1.8l0.3-0.7h0.3l-0.4,1.1
		c-0.5,1.6-1.4,2-2.5,2c-1.1,0-1.6-0.6-1.6-1.5c0-0.3,0.1-0.7,0.2-1l1.9-6.6h-1.6l0.1-0.4h1.6l0.8-2.7c0.6,0,1.2-0.1,1.6-0.3l-0.9,3
		h2.4l-0.1,0.4H73L70.9,120.3z"/>
	<path id="XMLID_49_" d="M76.9,117.8c-0.1,0.6-0.2,1.2-0.2,1.7c0,1.2,0.5,1.7,1.2,1.7c0.9,0,1.9-0.5,2.8-1.8l0.3,0.1
		c-0.7,1.2-2.1,2.4-3.6,2.4c-1.5,0-2.4-0.9-2.4-2.5c0-2.6,2.5-7.2,5.9-7.2c0.7,0,1.3,0.4,1.3,1.2C82.3,115.7,79,117.1,76.9,117.8z
		 M77,117.5c1.1-0.4,1.9-0.7,2.5-1.2c0.9-0.7,1.4-1.7,1.4-2.9c0-0.7-0.1-0.8-0.3-0.8C79.4,112.6,77.7,114.9,77,117.5z"/>
	<path id="XMLID_52_" d="M84.4,120.3c-0.1,0.2-0.1,0.5-0.1,0.6c0,0.3,0.1,0.5,0.4,0.5c0.5,0,0.9-0.5,1.3-1.8l0.2-0.7h0.3l-0.4,1.3
		c-0.5,1.4-1.2,1.9-2.2,1.9c-1,0-1.2-0.5-1.2-1.2c0-0.4,0.1-0.9,0.2-1.4l2.9-9.7c0.1-0.2,0.1-0.4,0.1-0.5c0-0.5-0.3-0.7-1.2-0.7
		l0.1-0.4c1.3,0,2.3-0.3,3.2-0.7L84.4,120.3z"/>
	<path id="XMLID_54_" d="M107.7,110.9c0,1.2-0.7,2.1-2.2,2.9c-0.7,0.3-1.8,0.8-2.9,1.2c0.8,0.7,1.3,1.6,1.3,2.7c0,2.4-2.2,4.4-6,4.4
		c-3.2,0-5.2-1.4-5.2-3.8c0-2.2,1.7-3.9,3.9-4.5c-0.8-0.4-1.3-1.2-1.3-2c0-1.7,1.9-2.6,3.6-2.6c1.4,0,2.2,0.6,2.2,1.6
		c0,0.9-0.8,1.4-1.5,1.4l0-0.3c0.7,0,1.1-0.4,1.1-1c0-0.8-0.8-1.3-1.7-1.3c-1.5,0-2.5,1.1-2.5,2.7c0,0.5,0.1,1,0.4,1.5
		c0.4-0.1,0.9-0.1,1.1-0.1c0.4,0,0.7,0.1,0.7,0.4c0,0.3-0.3,0.4-0.6,0.4c-0.4,0-1-0.3-1.2-0.4c-1.6,0.5-2.8,1.9-2.8,3.5
		c0,2.2,1.9,3.3,4.5,3.3c2.8,0,5-1.3,5-3.3c0-0.8-0.4-1.7-1.2-2.4c-0.9,0.3-1.7,0.6-2.3,0.9c-0.7,0.3-1.9,0.8-1.9,1.8
		c0,0.8,0.7,1.2,1.5,1.2c1.1,0,1.7-0.8,1.8-1.1l0.2,0.2c-0.3,0.5-0.9,1.2-2.1,1.2c-1,0-1.9-0.4-1.9-1.8c0-1.5,1.2-2.3,3-3
		c0.9-0.3,3.3-1.1,4.7-1.8c1.1-0.5,1.9-1.1,1.9-2c0-0.9-0.8-1.5-1.8-1.5c-0.3,0-0.5,0.1-0.6,0.2c0.3,0.1,0.4,0.4,0.4,0.7
		c0,0.6-0.6,1-1.2,1c-0.5,0-0.8-0.3-0.8-0.8c0-0.5,0.4-0.9,0.9-1.1c0.4-0.2,0.9-0.3,1.3-0.3C106.8,108.8,107.7,109.4,107.7,110.9z"
		/>
	<path id="XMLID_56_" d="M122.4,119.6l-0.1,0.2c-0.4,1.5-1,2.2-2.1,2.2c-1.1,0-1.6-0.8-1.6-1.6c0-0.1,0-0.1,0-0.2l0.1-2
		c0-0.2,0-0.4,0-0.6c0-1.5-0.6-2-3.3-2l-1.1,4.1c-0.1,0.4-0.2,0.7-0.2,0.9c0,0.5,0.3,0.7,1.2,0.7l-0.1,0.4c-0.6,0-1.4-0.1-2.2-0.1
		c-0.9,0-1.8,0-2.3,0.1l0.1-0.4c1.2-0.1,1.5-0.2,1.9-1.5l2.4-8.9c0.1-0.4,0.2-0.6,0.2-0.8c0-0.5-0.3-0.7-1.2-0.7l0.1-0.4
		c0.5,0,1.4,0.1,2.2,0.1c0.9,0,1.7,0,2.6,0c2.4,0,3.6,1,3.6,2.5c0,2-1.8,3.5-4.7,4c0.2,0,0.4,0.1,0.6,0.1c1.3,0.2,2,0.7,2,2
		c0,0.1,0,0.2,0,0.4l-0.1,1.8c0,0.1,0,0.2,0,0.4c0,0.6,0.1,1.1,0.6,1.1c0.4,0,0.7-0.6,1.1-1.5l0.1-0.3H122.4z M116.1,115.4
		c3.4,0,4.6-1.7,4.6-3.9c0-1.4-0.7-2.1-2.3-2.1c-1.1,0-1.4,0.3-1.7,1.5l-1.2,4.4H116.1z"/>
	<path id="XMLID_59_" d="M125.4,117.8c-0.1,0.6-0.2,1.2-0.2,1.7c0,1.2,0.5,1.7,1.2,1.7c0.9,0,1.9-0.5,2.8-1.8l0.3,0.1
		c-0.7,1.2-2.1,2.4-3.6,2.4c-1.5,0-2.4-0.9-2.4-2.5c0-2.6,2.5-7.2,5.9-7.2c0.7,0,1.3,0.4,1.3,1.2
		C130.8,115.7,127.5,117.1,125.4,117.8z M125.5,117.5c1.1-0.4,1.9-0.7,2.5-1.2c0.9-0.7,1.4-1.7,1.4-2.9c0-0.7-0.1-0.8-0.3-0.8
		C127.9,112.6,126.1,114.9,125.5,117.5z"/>
	<path id="XMLID_62_" d="M132.9,121.7c1.1,0,1.8-0.7,1.8-1.9c0-0.7-0.2-1.4-0.9-2.4c-0.6-0.8-1.2-1.5-1.2-2.6c0-1.5,1.3-2.5,2.8-2.5
		c1,0,2.2,0.3,2.2,1.6c0,0.3-0.2,0.9-0.8,0.9c-0.4,0-0.7-0.3-0.7-0.8c0-0.4,0.2-0.8,0.5-1.2c-0.2-0.1-0.5-0.2-0.9-0.2
		c-0.9,0-1.6,0.6-1.6,1.7c0,0.8,0.4,1.2,1.1,2.3c0.6,0.9,1.1,1.7,1.1,2.6c0,1.7-1.4,2.8-3.1,2.8c-1.2,0-2.4-0.5-2.4-1.8
		c0-0.3,0.2-0.8,0.7-0.8c0.6,0,0.8,0.6,0.8,1.1c0,0.4-0.1,0.7-0.1,0.9C132.3,121.6,132.5,121.7,132.9,121.7z"/>
	<path id="XMLID_64_" d="M143.4,112.3c1.5,0,2.5,0.9,2.5,2.8c0,2.6-1.8,6.9-5.2,6.9c-1.5,0-2.5-0.9-2.5-2.8
		C138.2,116.6,140.1,112.3,143.4,112.3z M139.8,120.1c0,1.1,0.3,1.6,1,1.6c1.9,0,3.5-4.3,3.5-7.5c0-1.1-0.3-1.6-1-1.6
		C141.4,112.7,139.8,116.9,139.8,120.1z"/>
	<path id="XMLID_67_" d="M154.8,113.3c0,0.7-0.6,1.3-1.3,1.3c-0.4,0-0.7-0.2-0.7-0.7c0-0.6,0.3-0.9,0.8-1.2
		c-0.1-0.1-0.1-0.1-0.2-0.1c-1.3,0-2.9,3.1-4.2,7.5l-0.4,1.5h-1.6l2.2-7.7c0.1-0.3,0.1-0.5,0.1-0.7c0-0.3-0.1-0.4-0.4-0.4
		c-0.5,0-0.9,0.5-1.4,1.8l-0.2,0.7h-0.3l0.5-1.3c0.5-1.5,1.4-1.9,2.2-1.9c0.8,0,1,0.4,1,1c0,0.4-0.1,1-0.3,1.5l-0.6,2.3
		c1.3-3.5,2.3-4.8,3.7-4.8C154.4,112.3,154.8,112.7,154.8,113.3z"/>
	<path id="XMLID_69_" d="M156.5,120.3c0,0.1-0.1,0.3-0.1,0.4c0,0.5,0.3,0.7,0.8,0.7c0.5,0,1.1-0.3,1.6-1.8l0.3-0.7h0.3L159,120
		c-0.5,1.6-1.4,2-2.5,2c-1.1,0-1.6-0.6-1.6-1.5c0-0.3,0.1-0.7,0.2-1l1.9-6.6h-1.6l0.1-0.4h1.6l0.8-2.7c0.6,0,1.2-0.1,1.6-0.3l-0.9,3
		h2.4l-0.1,0.4h-2.4L156.5,120.3z"/>
</g>
<g id="XMLID_14_">
	<g id="XMLID_6_">
		<path id="XMLID_7_" d="M128.9,52.4c1.5,3.9,3.4,5.3,5,5.4v1.7c-4.1-0.2-9.8-0.2-15.3-0.2c-5.7,0-11.1,0.1-14.1,0.2v-1.7
			c4-0.2,5.9-0.8,5.9-3.1c0-1-0.4-2.3-1-4l-3.6-10c-0.8-2.3-3-3.8-5.4-3.8H87.4L86,40.7c-1.9,4.9-2.7,8.4-2.7,11
			c0,4.9,3.1,5.9,7.6,6.1v1.7c-4.2-0.2-7.1-0.2-11-0.2c-2.2,0-4.8,0.1-6.5,0.2v-1.7c2.6-0.4,5-2.9,7.7-9.8L99.7,0
			c1.4,0.1,2.9,0.2,4.4,0.2c1.5,0,3.1,0,4.4-0.2L128.9,52.4z M96.1,14.3l-8.1,21h15.7L96.1,14.3z"/>
	</g>
	<polygon id="XMLID_10_" class="st0" points="124.3,59.3 122.7,59.2 99.7,0 101.1,0.1 	"/>
	<polygon id="XMLID_5_" class="st1" points="127.3,59.3 125.7,59.3 102.8,0.2 104.2,0.2 	"/>
	<polygon id="XMLID_11_" class="st2" points="121.2,59.2 119.6,59.2 98.2,3.9 98.9,2.2 	"/>
	<polygon id="XMLID_12_" class="st3" points="118.1,59.2 116.6,59.2 96.6,7.9 97.3,6.2 	"/>
</g>
<g id="XMLID_121_">
</g>
<g id="XMLID_122_">
</g>
<g id="XMLID_123_">
</g>
<g id="XMLID_124_">
</g>
<g id="XMLID_125_">
</g>
<g id="XMLID_126_">
</g>
</svg>
