<?xml version="1.0" encoding="utf-8"?>
<!-- Generator: Adobe Illustrator 19.0.0, SVG Export Plug-In . SVG Version: 6.00 Build 0)  -->
<svg version="1.1" id="Capa_1" xmlns="http://www.w3.org/2000/svg" xmlns:xlink="http://www.w3.org/1999/xlink" x="0px" y="0px"
	 viewBox="0 0 60.5 59.2" enable-background="new 0 0 60.5 59.2" xml:space="preserve">
<g id="XMLID_14_">
	<g id="XMLID_6_">
		<path id="XMLID_7_" d="M55.5,52.4c1.5,3.9,3.4,5.3,5,5.4v1.7c-4.1-0.2-9.8-0.2-15.3-0.2c-5.7,0-11.1,0.1-14.1,0.2v-1.7
			c4-0.2,5.9-0.8,5.9-3.1c0-1-0.4-2.3-1-4l-3.6-10c-0.8-2.3-3-3.8-5.4-3.8H14l-1.4,3.8c-1.9,4.9-2.7,8.4-2.7,11
			c0,4.9,3.1,5.9,7.6,6.1v1.7c-4.2-0.2-7.1-0.2-11-0.2c-2.2,0-4.8,0.1-6.5,0.2v-1.7c2.6-0.4,5-2.9,7.7-9.8L26.4,0
			c1.4,0.1,2.9,0.2,4.4,0.2c1.5,0,3.1,0,4.4-0.2L55.5,52.4z M22.8,14.3l-8.1,21h15.7L22.8,14.3z"/>
	</g>
	<polygon id="XMLID_10_" fill="#515151" points="51,59.3 49.4,59.2 26.4,0 27.8,0.1 	"/>
	<polygon id="XMLID_5_" fill="#757575" points="54,59.3 52.4,59.3 29.5,0.2 30.8,0.2 	"/>
	<polygon id="XMLID_11_" fill="#3F3F3F" points="47.9,59.2 46.3,59.2 24.8,3.9 25.5,2.2 	"/>
	<polygon id="XMLID_12_" fill="#212121" points="44.8,59.2 43.2,59.2 23.3,7.9 24,6.2 	"/>
</g>
</svg>
